<?xml version="1.0" encoding="UTF-8" standalone="no"?>
<!DOCTYPE svg PUBLIC "-//W3C//DTD SVG 1.1//EN"
 "http://www.w3.org/Graphics/SVG/1.1/DTD/svg11.dtd">
<!-- Generated by graphviz version 8.0.5 (20230430.1635)
 -->
<!-- Title: SCHEMA Pages: 1 -->
<svg width="772pt" height="585pt"
 viewBox="0.00 0.00 772.37 585.40" xmlns="http://www.w3.org/2000/svg" xmlns:xlink="http://www.w3.org/1999/xlink">
<g id="graph0" class="graph" transform="scale(1 1) rotate(0) translate(4 581.4)">
<title>SCHEMA</title>
<polygon fill="white" stroke="none" points="-4,4 -4,-581.4 768.37,-581.4 768.37,4 -4,4"/>
<text text-anchor="middle" x="382.18" y="-6" font-family="Helvetica,Arial,sans-serif" font-size="20.00">RDF Example</text>
<!-- ex1 -->
<g id="node1" class="node">
<title>ex1</title>
<ellipse fill="none" stroke="black" cx="392.86" cy="-365.21" rx="104.48" ry="18"/>
<text text-anchor="middle" x="392.86" y="-359.41" font-family="Helvetica,Arial,sans-serif" font-size="14.00">http://domain/res&#45;node1</text>
</g>
<!-- ex2 -->
<g id="node2" class="node">
<title>ex2</title>
<ellipse fill="none" stroke="black" cx="392.03" cy="-216.7" rx="104.48" ry="18"/>
<text text-anchor="middle" x="392.03" y="-210.9" font-family="Helvetica,Arial,sans-serif" font-size="14.00">http://domain/res&#45;node2</text>
</g>
<!-- ex1&#45;&#45;ex2 -->
<g id="edge1" class="edge">
<title>ex1&#45;&#45;ex2</title>
<path fill="none" stroke="black" stroke-width="2" d="M392.76,-347C392.6,-318.5 392.29,-263.66 392.13,-235.06"/>
<text text-anchor="middle" x="312.94" y="-292.73" font-family="Helvetica,Arial,sans-serif" font-size="14.00">http://domain/res&#45;relation1</text>
</g>
<!-- label1 -->
<g id="node4" class="node">
<title>label1</title>
<polygon fill="none" stroke="black" points="186.17,-572.16 103.42,-572.16 103.42,-536.16 186.17,-536.16 186.17,-572.16"/>
<text text-anchor="middle" x="144.79" y="-548.36" font-family="Helvetica,Arial,sans-serif" font-size="14.00">ABCD@en</text>
</g>
<!-- ex1&#45;&#45;label1 -->
<g id="edge2" class="edge">
<title>ex1&#45;&#45;label1</title>
<path fill="none" stroke="black" stroke-width="2" d="M369.52,-382.99C322.48,-418.82 216.71,-499.38 168.98,-535.74"/>
<text text-anchor="middle" x="134.62" y="-461.06" font-family="Helvetica,Arial,sans-serif" font-size="14.00">http://www.w3.org/2000/01/rdf&#45;schema#label</text>
</g>
<!-- label2 -->
<g id="node5" class="node">
<title>label2</title>
<polygon fill="none" stroke="black" points="764.37,-577.4 710.12,-577.4 710.12,-541.4 764.37,-541.4 764.37,-577.4"/>
<text text-anchor="middle" x="737.24" y="-556.6" font-family="Helvetica,Arial,sans-serif" font-size="14.00">예@kr</text>
</g>
<!-- ex1&#45;&#45;label2 -->
<g id="edge3" class="edge">
<title>ex1&#45;&#45;label2</title>
<path fill="none" stroke="black" stroke-width="2" d="M424.03,-382.79C490.75,-420.41 646.49,-508.23 709.77,-543.91"/>
<text text-anchor="middle" x="432.27" y="-465.05" font-family="Helvetica,Arial,sans-serif" font-size="14.00">http://www.w3.org/2000/01/rdf&#45;schema#label</text>
</g>
<!-- ex3 -->
<g id="node3" class="node">
<title>ex3</title>
<ellipse fill="none" stroke="black" cx="380.14" cy="-71" rx="104.48" ry="18"/>
<text text-anchor="middle" x="380.14" y="-65.2" font-family="Helvetica,Arial,sans-serif" font-size="14.00">http://domain/res&#45;node3</text>
</g>
<!-- ex2&#45;&#45;ex3 -->
<g id="edge4" class="edge">
<title>ex2&#45;&#45;ex3</title>
<path fill="none" stroke="black" stroke-width="2" d="M390.53,-198.25C388.24,-170.22 383.92,-117.24 381.64,-89.3"/>
<text text-anchor="middle" x="306.58" y="-145.48" font-family="Helvetica,Arial,sans-serif" font-size="14.00">http://domain/res&#45;relation2</text>
</g>
</g>
</svg>
